<svg width="13" height="13" viewBox="0 0 13 13" fill="none" xmlns="http://www.w3.org/2000/svg">
<path d="M0.85464 12.832C0.759479 12.8319 0.665393 12.8119 0.578365 12.7734C0.491337 12.7349 0.413272 12.6787 0.349133 12.6084C0.283834 12.5386 0.234007 12.4559 0.202919 12.3656C0.171831 12.2752 0.160184 12.1793 0.168741 12.0842L0.336787 10.2359L8.09979 2.4735L10.5258 4.8995L2.76487 12.6612L0.917057 12.8293C0.896307 12.8312 0.875478 12.8321 0.85464 12.832ZM11.0101 4.41444L8.58472 1.98844L10.0395 0.533251C10.1032 0.469461 10.1789 0.418856 10.2621 0.384329C10.3454 0.349803 10.4346 0.332031 10.5248 0.332031C10.6149 0.332031 10.7042 0.349803 10.7874 0.384329C10.8707 0.418856 10.9464 0.469461 11.0101 0.533251L12.4649 1.98844C12.5286 2.05216 12.5792 2.12783 12.6137 2.21112C12.6482 2.2944 12.666 2.38368 12.666 2.47385C12.666 2.56401 12.6482 2.65329 12.6137 2.73657C12.5792 2.81986 12.5286 2.89553 12.4649 2.95925L11.0107 4.41375L11.0101 4.41444Z" fill="#2B2B2B"/>
</svg>
