<svg width="108" height="100" viewBox="0 0 108 100" fill="none" xmlns="http://www.w3.org/2000/svg">
<path fill-rule="evenodd" clip-rule="evenodd" d="M41.5875 7.32759C47.0353 -2.44253 60.9717 -2.44253 66.4124 7.32759L106.149 78.592C111.49 88.1753 104.633 100 93.744 100H14.263C3.36736 100 -3.49047 88.1753 1.85052 78.592L41.5875 7.32759ZM61.1213 78.4555C61.1213 80.3608 60.371 82.188 59.0355 83.5352C57.7 84.8825 55.8886 85.6394 54 85.6394C52.1113 85.6394 50.2999 84.8825 48.9644 83.5352C47.6289 82.188 46.8786 80.3608 46.8786 78.4555C46.8786 76.5502 47.6289 74.7229 48.9644 73.3757C50.2999 72.0284 52.1113 71.2716 54 71.2716C55.8886 71.2716 57.7 72.0284 59.0355 73.3757C60.371 74.7229 61.1213 76.5502 61.1213 78.4555ZM54 20.9842C52.1113 20.9842 50.2999 21.7411 48.9644 23.0883C47.6289 24.4356 46.8786 26.2628 46.8786 28.1681V49.7198C46.8786 51.6251 47.6289 53.4524 48.9644 54.7996C50.2999 56.1469 52.1113 56.9037 54 56.9037C55.8886 56.9037 57.7 56.1469 59.0355 54.7996C60.371 53.4524 61.1213 51.6251 61.1213 49.7198V28.1681C61.1213 26.2628 60.371 24.4356 59.0355 23.0883C57.7 21.7411 55.8886 20.9842 54 20.9842Z" fill="#F4B71A"/>
</svg>
